<svg xmlns="http://www.w3.org/2000/svg" viewBox="0 0 400 500">
  <defs>
    <linearGradient id="g" x1="0%" y1="0%" x2="100%" y2="100%">
      <stop offset="0%" stop-color="#f7f1e8"/>
      <stop offset="100%" stop-color="#d7c0ae"/>
    </linearGradient>
  </defs>
  <rect width="400" height="500" rx="40" fill="#111" />
  <path d="M200 90c-18 0-33 15-33 33v56c0 18 15 33 33 33s33-15 33-33v-56c0-18-15-33-33-33z" fill="#ddd" opacity="0.8"/>
  <path d="M200 136c-24 0-44 20-44 44v52c0 55 44 110 44 110s44-55 44-110v-52c0-24-20-44-44-44z" fill="url(#g)" stroke="#fff" stroke-width="6"/>
  <circle cx="200" cy="240" r="20" fill="#fff" opacity="0.9"/>
  <path d="M170 220c0 14 0 42 30 42s30-28 30-42" fill="none" stroke="#fff" stroke-width="8" stroke-linecap="round"/>
  <path d="M180 110c12-8 28-8 40 0" fill="none" stroke="#fff" stroke-width="8" stroke-linecap="round"/>
  <path d="M170 450c0-90 60-140 60-140s60 50 60 140" fill="none" stroke="#fff" stroke-width="10" stroke-linecap="round" opacity="0.6"/>
</svg>
